# xmcd
#
# Track frame offsets:
#	150
#	15744
#	33283
#	51671
#	66197
#	82010
#	96632
#	114589
#	129064
#	145776
#
# Disc length: 2120 seconds
#
# Revision: 0
# Processed by: cddbd v1.4PL0 Copyright (c) Steve Scherf et al.
# Submitted via: audiograbber 1.81.03
#
DISCID=8a08460a
DTITLE=Tanya Tucker - Fire To Fire
DYEAR=1995
DGENRE=Country
TTITLE0=Come In Out Of The World
TTITLE1=I'll Take The Memories
TTITLE2=I Bet She Knows
TTITLE3=Find Out What's Happenin'
TTITLE4=Fire To Fire (Duet With Willie Nelson)
TTITLE5=Between The Two Of Them
TTITLE6=Nobody Dies From A Broken Heart
TTITLE7=I'll Take Today
TTITLE8=The Love You Gave To Me
TTITLE9=Love Will
EXTD=
EXTT0=
EXTT1=
EXTT2=
EXTT3=
EXTT4=
EXTT5=
EXTT6=
EXTT7=
EXTT8=
EXTT9=
PLAYORDER=
